<?xml version="1.0" encoding="utf-8"?>
<svg version="1.1" width="200px" height="100px" style="" xmlns="http://www.w3.org/2000/svg">
  <path fill="#ffffff" d="M 0.034 53.397 C 0.013 52.614 0 51.829 0 51.046 C 0 48.588 0.114 46.119 0.342 43.636 C 0.613 40.341 0.796 37.101 0.884 33.912 C 0.976 30.176 1.114 26.293 1.295 22.269 C 1.409 20.073 1.465 17.905 1.465 15.76 C 1.465 14.008 1.43 12.27 1.363 10.546 C 1.589 9.945 1.89 9.54 2.265 9.331 C 2.641 9.122 3.112 9.019 3.68 9.019 C 3.951 9.019 4.241 9.044 4.546 9.096 C 4.854 9.148 5.12 9.28 5.346 9.489 C 5.665 9.54 6.056 9.592 6.523 9.643 C 6.987 9.698 7.346 9.853 7.596 10.114 C 7.686 10.272 7.92 10.808 8.292 11.722 C 8.667 12.637 9.11 13.747 9.622 15.054 C 10.131 16.362 10.667 17.779 11.224 19.308 C 11.778 20.839 12.312 22.289 12.822 23.661 C 13.335 25.034 13.776 26.241 14.153 27.288 C 14.527 28.331 14.757 28.985 14.849 29.246 C 16.985 24.804 19.073 20.236 21.118 15.546 C 23.161 10.854 25.398 6.429 27.828 2.274 C 28.054 1.907 28.445 1.64 29.002 1.472 C 29.559 1.302 30.017 1.216 30.381 1.216 C 31.357 1.216 32.067 1.483 32.51 2.019 C 32.955 2.555 33.243 3.24 33.376 4.078 C 33.469 4.599 33.527 5.162 33.548 5.764 C 33.572 6.076 33.559 6.403 33.514 6.745 C 33.424 7.711 33.376 8.626 33.376 9.489 C 33.376 15.577 33.198 21.622 32.834 27.621 C 32.471 33.619 32.142 39.676 31.845 45.792 C 31.8 47.045 31.778 48.353 31.778 49.712 C 31.778 51.072 31.8 52.483 31.845 53.948 C 31.867 54.469 31.88 54.981 31.88 55.476 C 31.88 57.776 31.71 59.918 31.37 61.905 C 31.052 62.507 30.529 62.886 29.802 63.041 C 29.075 63.199 28.462 63.277 27.963 63.277 C 26.895 63.277 25.873 62.989 24.897 62.416 L 24.523 61.905 L 24.387 61.278 C 24.387 61.278 24.363 61.068 24.318 60.649 C 24.318 56.861 24.439 53.044 24.675 49.202 C 24.914 45.359 25.181 41.526 25.477 37.697 C 25.772 33.866 26.084 30.043 26.415 26.23 C 26.744 22.413 27.019 18.597 27.249 14.779 C 25.91 17.343 24.609 19.95 23.348 22.602 C 22.088 25.254 20.901 27.953 19.787 30.698 C 19.378 31.77 18.987 32.92 18.615 34.147 C 18.239 35.378 17.789 36.473 17.269 37.442 C 16.996 37.913 16.538 38.199 15.888 38.302 C 15.241 38.409 14.682 38.46 14.202 38.46 C 13.748 38.46 13.277 38.369 12.789 38.185 C 12.301 38.004 11.966 37.611 11.783 37.009 C 10.944 34.055 10.047 31.167 9.092 28.346 C 8.142 25.522 7.174 22.66 6.198 19.761 C 6.198 21.693 6.232 24.196 6.301 27.268 C 6.37 30.339 6.402 33.522 6.402 36.814 C 6.402 40.106 6.357 43.257 6.269 46.263 C 6.176 49.268 5.961 51.645 5.619 53.397 C 5.529 54.051 5.159 54.455 4.514 54.613 C 3.867 54.771 3.303 54.848 2.828 54.848 C 2.465 54.848 2.118 54.822 1.789 54.771 C 1.46 54.716 1.135 54.613 0.817 54.455 L 0.034 53.397 Z M 40.484 36.384 C 40.484 35.624 40.673 35.128 41.047 34.893 C 41.422 34.658 41.892 34.54 42.46 34.54 C 43.391 34.54 44.101 34.743 44.589 35.148 C 45.08 35.552 45.323 36.266 45.323 37.284 C 45.323 38.512 45.402 40.049 45.559 41.89 C 45.718 43.734 45.953 45.523 46.26 47.264 C 46.566 49.001 46.929 50.495 47.348 51.751 C 47.77 53.005 48.204 53.632 48.66 53.632 C 49.501 53.632 50.243 52.887 50.89 51.399 C 51.538 49.908 52.105 48.078 52.594 45.91 C 53.084 43.739 53.501 41.408 53.856 38.911 C 54.206 36.416 54.452 34.187 54.587 32.226 C 54.677 31.157 54.899 30.376 55.249 29.894 C 55.602 29.41 56.245 29.169 57.176 29.169 C 58.243 29.169 59.019 29.68 59.508 30.698 C 59.996 31.719 60.308 32.971 60.445 34.463 C 60.559 35.741 60.613 37.075 60.613 38.46 L 60.613 39.128 L 60.613 40.694 C 60.613 41.689 60.626 42.578 60.649 43.361 L 61.639 67.393 L 61.772 71.394 C 61.817 71.758 61.852 72.105 61.875 72.431 C 61.897 72.759 61.91 73.106 61.91 73.47 C 61.91 74.961 61.63 75.922 61.075 76.353 C 60.518 76.782 59.615 77 58.368 77 C 58.095 77 57.748 76.975 57.327 76.92 C 56.908 76.868 56.499 76.765 56.103 76.607 C 55.703 76.45 55.366 76.234 55.082 75.959 C 54.798 75.687 54.656 75.34 54.656 74.921 L 54.791 74.528 C 54.903 72.96 54.961 71.313 54.961 69.591 L 54.961 68.767 C 54.94 66.728 54.882 64.664 54.791 62.57 C 54.699 60.48 54.598 58.39 54.484 56.298 C 54.37 54.208 54.314 52.196 54.314 50.26 C 53.998 51.072 53.626 51.909 53.206 52.769 C 52.787 53.632 52.299 54.409 51.742 55.104 C 51.187 55.794 50.557 56.371 49.852 56.827 C 49.148 57.286 48.355 57.515 47.467 57.515 C 46.174 57.515 45.105 57.123 44.267 56.339 C 43.428 55.553 42.774 54.535 42.308 53.279 C 41.843 52.026 41.51 50.621 41.301 49.064 C 41.097 47.51 40.963 45.956 40.892 44.399 C 40.826 42.844 40.781 41.362 40.759 39.952 C 40.735 38.54 40.645 37.351 40.484 36.384 Z M 66.802 3.96 C 66.802 3.593 67.024 3.312 67.467 3.117 C 67.91 2.922 68.2 2.822 68.333 2.822 L 69.596 2.587 C 70.437 2.432 71.286 2.294 72.151 2.177 C 73.013 2.059 73.852 1.948 74.669 1.844 C 77.555 1.426 80.439 1.013 83.32 0.608 C 86.206 0.204 89.112 0 92.041 0 C 92.267 0 92.581 0.015 92.976 0.04 C 93.376 0.066 93.772 0.138 94.17 0.255 C 94.566 0.373 94.908 0.537 95.191 0.745 C 95.475 0.955 95.617 1.242 95.617 1.608 C 95.617 1.87 95.508 2.099 95.295 2.294 C 95.077 2.49 94.824 2.641 94.527 2.744 C 94.232 2.851 93.931 2.914 93.626 2.939 C 93.318 2.969 93.075 2.979 92.892 2.979 L 92.297 2.979 C 92.297 2.979 92.099 2.928 91.699 2.822 C 90.497 2.822 89.31 2.887 88.142 3.019 C 86.97 3.149 85.785 3.266 84.583 3.372 C 84.901 3.791 85.071 4.379 85.092 5.136 C 85.114 5.893 85.138 6.547 85.159 7.097 C 85.159 16.348 85.217 25.55 85.331 34.698 C 85.443 43.845 85.546 53.085 85.639 62.416 L 85.639 62.493 C 84.888 63.25 84.245 63.734 83.712 63.944 C 83.178 64.153 82.641 64.256 82.095 64.256 C 81.572 64.256 81.045 64.148 80.512 63.924 C 79.978 63.703 79.335 63.224 78.587 62.493 L 78.587 62.416 L 78.86 31.638 C 78.86 29.6 78.837 27.351 78.791 24.897 C 78.744 22.439 78.723 19.95 78.723 17.426 C 78.723 14.906 78.757 12.469 78.824 10.114 C 78.895 7.763 79.075 5.713 79.37 3.96 C 78.03 4.118 76.613 4.353 75.112 4.666 C 73.819 4.926 72.581 5.058 71.4 5.058 L 70.787 5.058 C 70.697 5.058 70.43 5.07 69.989 5.096 C 69.544 5.125 69.088 5.111 68.626 5.058 C 68.159 5.007 67.74 4.901 67.366 4.743 C 66.989 4.589 66.802 4.327 66.802 3.96 Z M 99.796 45.87 C 99.796 44.381 99.959 42.844 100.288 41.264 C 100.617 39.682 101.142 38.259 101.856 36.989 C 102.57 35.721 103.473 34.69 104.563 33.892 C 105.652 33.095 106.97 32.697 108.514 32.697 C 109.673 32.697 110.892 32.925 112.174 33.384 C 113.458 33.84 114.634 34.494 115.699 35.343 C 116.768 36.192 117.639 37.233 118.305 38.46 C 118.976 39.69 119.312 41.06 119.312 42.578 C 119.312 44.407 119.024 46.146 118.443 47.791 C 117.865 49.437 117.052 50.908 116.009 52.201 C 114.961 53.494 113.742 54.515 112.346 55.261 C 110.948 56.004 109.434 56.376 107.8 56.376 C 106.46 56.376 105.288 56.096 104.29 55.533 C 103.29 54.971 102.456 54.22 101.789 53.279 C 101.118 52.339 100.617 51.229 100.288 49.948 C 99.959 48.666 99.796 47.306 99.796 45.87 Z M 104.8 45.792 C 104.8 46.263 104.865 46.954 104.989 47.869 C 105.114 48.784 105.301 49.681 105.551 50.555 C 105.802 51.43 106.123 52.19 106.523 52.829 C 106.918 53.469 107.402 53.764 107.97 53.713 C 109.172 53.555 110.168 53.105 110.948 52.359 C 111.733 51.614 112.37 50.704 112.858 49.635 C 113.346 48.562 113.686 47.398 113.88 46.146 C 114.073 44.889 114.168 43.702 114.168 42.578 C 114.168 41.138 113.923 39.937 113.434 38.971 C 112.946 38.004 112.146 37.218 111.034 36.619 C 111.034 36.67 111.058 36.696 111.103 36.696 C 111.148 36.696 111.17 36.67 111.17 36.619 L 110.318 36.384 C 110.092 36.278 109.815 36.16 109.484 36.031 C 109.155 35.899 108.832 35.612 108.514 35.168 C 107.628 35.532 106.944 36.002 106.454 36.579 C 105.966 37.152 105.598 37.853 105.346 38.675 C 105.097 39.498 104.942 40.488 104.888 41.637 C 104.83 42.787 104.8 44.172 104.8 45.792 Z M 125.602 44.654 C 125.602 42.615 125.789 40.768 126.163 39.108 C 126.535 37.448 127.133 36.043 127.951 34.893 C 128.768 33.743 129.843 32.848 131.17 32.209 C 132.499 31.566 134.114 31.248 136.024 31.248 C 137.09 31.248 138.181 31.411 139.295 31.736 C 140.404 32.062 141.359 32.671 142.155 33.559 C 142.155 33.037 142.198 31.959 142.29 30.325 C 142.381 28.692 142.495 26.792 142.63 24.621 C 142.768 22.45 142.91 20.18 143.056 17.799 C 143.204 15.422 143.335 13.211 143.449 11.175 C 143.561 9.136 143.665 7.424 143.755 6.039 C 143.845 4.652 143.912 3.868 143.959 3.685 C 144.187 2.928 144.604 2.477 145.222 2.334 C 145.834 2.188 146.411 2.117 146.957 2.117 C 148.387 2.117 149.267 2.377 149.596 2.902 C 149.925 3.424 150.09 4.471 150.09 6.039 C 150.09 11.763 149.869 17.461 149.426 23.13 C 148.983 28.802 148.761 34.5 148.761 40.223 C 148.761 43.911 148.824 47.616 148.951 51.338 C 149.075 55.064 149.523 58.73 150.295 62.336 L 150.669 62.728 L 150.873 63.434 L 150.363 64.337 C 149.501 64.962 148.501 65.278 147.366 65.278 L 147.228 65.278 C 146.071 65.278 145.004 64.962 144.028 64.337 C 143.665 64.073 143.361 63.297 143.125 62.003 C 142.886 60.709 142.699 59.284 142.563 57.73 C 142.426 56.176 142.323 54.679 142.256 53.239 C 142.189 51.803 142.131 50.785 142.086 50.182 C 141.292 52.273 140.206 54.071 138.832 55.573 C 137.46 57.076 135.729 57.828 133.639 57.828 C 132.004 57.828 130.665 57.423 129.622 56.611 C 128.576 55.803 127.766 54.771 127.185 53.514 C 126.606 52.261 126.198 50.856 125.959 49.299 C 125.718 47.746 125.602 46.196 125.602 44.654 Z M 129.723 44.889 C 129.723 45.491 129.785 46.38 129.91 47.556 C 130.034 48.731 130.234 49.908 130.505 51.086 C 130.779 52.261 131.157 53.305 131.645 54.22 C 132.133 55.134 132.776 55.593 133.572 55.593 C 134.639 54.991 135.602 53.993 136.467 52.594 C 137.329 51.195 138.073 49.652 138.697 47.969 C 139.32 46.283 139.809 44.596 140.161 42.911 C 140.514 41.224 140.688 39.767 140.688 38.54 C 140.688 36.998 140.2 35.716 139.224 34.698 C 138.247 33.677 137.08 33.166 135.716 33.166 C 135.308 33.166 134.895 33.258 134.473 33.442 C 134.052 33.625 133.662 33.835 133.297 34.069 C 132.458 34.984 131.806 35.814 131.34 36.559 C 130.873 37.304 130.523 38.075 130.284 38.873 C 130.047 39.67 129.892 40.55 129.826 41.519 C 129.755 42.487 129.723 43.611 129.723 44.889 Z M 157.163 45.87 C 157.163 44.381 157.327 42.844 157.656 41.264 C 157.985 39.682 158.51 38.259 159.224 36.989 C 159.94 35.721 160.841 34.69 161.931 33.892 C 163.019 33.095 164.338 32.697 165.882 32.697 C 167.041 32.697 168.262 32.925 169.544 33.384 C 170.828 33.84 172.002 34.494 173.071 35.343 C 174.135 36.192 175.006 37.233 175.673 38.46 C 176.344 39.69 176.68 41.06 176.68 42.578 C 176.68 44.407 176.391 46.146 175.811 47.791 C 175.232 49.437 174.419 50.908 173.376 52.201 C 172.329 53.494 171.11 54.515 169.714 55.261 C 168.316 56.004 166.802 56.376 165.168 56.376 C 163.828 56.376 162.658 56.096 161.66 55.533 C 160.658 54.971 159.826 54.22 159.157 53.279 C 158.486 52.339 157.985 51.229 157.656 49.948 C 157.327 48.666 157.163 47.306 157.163 45.87 Z M 162.17 45.792 C 162.17 46.263 162.232 46.954 162.357 47.869 C 162.482 48.784 162.669 49.681 162.918 50.555 C 163.17 51.43 163.495 52.19 163.89 52.829 C 164.288 53.469 164.77 53.764 165.338 53.713 C 166.54 53.555 167.535 53.105 168.316 52.359 C 169.101 51.614 169.738 50.704 170.226 49.635 C 170.714 48.562 171.054 47.398 171.247 46.146 C 171.441 44.889 171.535 43.702 171.535 42.578 C 171.535 41.138 171.29 39.937 170.802 38.971 C 170.314 38.004 169.514 37.218 168.404 36.619 C 168.404 36.67 168.426 36.696 168.471 36.696 C 168.516 36.696 168.538 36.67 168.538 36.619 L 167.686 36.384 C 167.46 36.278 167.183 36.16 166.852 36.031 C 166.523 35.899 166.2 35.612 165.882 35.168 C 164.996 35.532 164.312 36.002 163.822 36.579 C 163.333 37.152 162.966 37.853 162.714 38.675 C 162.465 39.498 162.312 40.488 162.256 41.637 C 162.198 42.787 162.17 44.172 162.17 45.792 Z M 182.97 35.01 C 182.97 33.938 183.241 33.017 183.787 32.246 C 184.331 31.475 184.996 30.849 185.781 30.365 C 186.563 29.88 187.419 29.522 188.351 29.287 C 189.28 29.052 190.144 28.935 190.94 28.935 C 191.553 28.935 192.37 29.038 193.391 29.246 C 194.413 29.456 195.411 29.771 196.387 30.187 C 197.363 30.605 198.211 31.157 198.927 31.836 C 199.641 32.516 200 33.312 200 34.228 C 200 34.643 199.862 35.016 199.589 35.343 C 199.318 35.669 199.034 35.834 198.74 35.834 C 198.127 35.834 197.568 35.604 197.071 35.148 C 196.57 34.69 196.054 34.207 195.52 33.697 C 194.985 33.186 194.402 32.704 193.768 32.246 C 193.129 31.789 192.415 31.56 191.619 31.56 C 190.826 31.56 190.105 31.853 189.458 32.444 C 188.809 33.031 188.486 33.809 188.486 34.775 C 188.486 36.369 188.974 37.933 189.951 39.46 C 190.927 40.989 192 42.598 193.17 44.281 C 194.34 45.967 195.411 47.739 196.387 49.595 C 197.363 51.45 197.852 53.503 197.852 55.748 C 197.852 56.718 197.677 57.535 197.325 58.201 C 196.974 58.865 196.508 59.41 195.929 59.826 C 195.348 60.245 194.697 60.566 193.972 60.787 C 193.243 61.01 192.54 61.122 191.858 61.122 C 191.11 61.122 190.234 60.918 189.234 60.514 C 188.237 60.107 187.295 59.571 186.409 58.906 C 185.523 58.241 184.779 57.46 184.179 56.574 C 183.576 55.686 183.277 54.756 183.277 53.79 C 183.277 53.319 183.566 53.019 184.144 52.887 C 184.725 52.757 185.151 52.692 185.422 52.692 C 185.559 52.692 185.768 52.743 186.052 52.849 C 186.335 52.952 186.613 53.07 186.886 53.202 C 187.157 53.331 187.402 53.474 187.619 53.632 C 187.832 53.79 187.92 53.96 187.873 54.143 C 188.099 54.455 188.445 54.919 188.912 55.533 C 189.379 56.147 189.843 56.646 190.31 57.025 C 190.774 57.403 191.183 57.541 191.535 57.435 C 191.886 57.331 192.062 56.744 192.062 55.671 C 192.062 53.632 191.587 51.757 190.632 50.044 C 189.68 48.333 188.641 46.661 187.516 45.027 C 186.394 43.395 185.355 41.772 184.4 40.166 C 183.445 38.558 182.97 36.84 182.97 35.01 Z"/>
  <path fill="#" d=""/>
</svg>